PathFileType	4	(X/Y/Z)	Patient4_TMGait_0pt5_01_left_40.trc.trc
DataRate	CameraRate	NumFrames	NumMarkers	Units	OrigDataRate	OrigDataStartFrame	OrigNumFrames
73.684210526316	73.684210526316	5	33	mm	73.684210526316	18	       141
Frame#	Time	L.ASIS			Sacral			L.Shoulder			Chest			R.Shoulder			Neck			R.ASIS			R.Thigh.Superior			R.Thigh.Lateral			R.Thigh.Inferior			R.Patella			L.Thigh.Superior			L.Thigh.Lateral			L.Thigh.Inferior			L.Patella			L.Shank.Superior			L.Shank.Lateral			L.Shank.Inferior			R.Shank.Superior			R.Shank.Lateral			R.Shank.Inferior			R.Heel			R.Midfoot.Superior			R.Midfoot.Lateral			R.Toe			L.Heel			L.Midfoot.Lateral			L.Midfoot.Superior			L.Toe			L.Elbow			L.Wrist			R.Elbow			R.Wrist			
		X1	Y1	Z1	X2	Y2	Z2	X3	Y3	Z3	X4	Y4	Z4	X5	Y5	Z5	X6	Y6	Z6	X7	Y7	Z7	X8	Y8	Z8	X9	Y9	Z9	X10	Y10	Z10	X11	Y11	Z11	X12	Y12	Z12	X13	Y13	Z13	X14	Y14	Z14	X15	Y15	Z15	X16	Y16	Z16	X17	Y17	Z17	X18	Y18	Z18	X19	Y19	Z19	X20	Y20	Z20	X21	Y21	Z21	X22	Y22	Z22	X23	Y23	Z23	X24	Y24	Z24	X25	Y25	Z25	X26	Y26	Z26	X27	Y27	Z27	X28	Y28	Z28	X29	Y29	Z29	X30	Y30	Z30	X31	Y31	Z31	X32	Y32	Z32	X33	Y33	Z33	

18	53.500714285714	752.019918881147	958.762103486736	362.946007491213	562.613395037680	1008.658945200511	547.994099737862	715.629084752096	1437.918605808695	360.224521607502	841.964560916589	1357.985823148166	498.625108696452	791.032042789981	1426.924231773744	686.667982637727	740.778080518649	1492.998855638550	512.499217123953	796.822479459154	935.901374700634	635.033200624169	798.850869680067	726.639764966780	606.624567915728	700.106745212687	629.938562447504	668.919421740044	761.411086021215	567.170029494617	586.950281544081	744.810723464653	482.231854300059	590.478746707942	826.716029430226	776.670560928776	387.460709829122	779.758964117135	649.834021504340	309.753982807850	883.622711815469	590.144151888167	370.650676102324	913.314237582321	527.588292699067	364.431796135549	901.076595273074	457.146876344504	353.543804566706	842.642955297288	323.262062328684	302.285514113398	938.189475390427	229.922158950948	354.689141581091	709.479507924209	397.114166019639	594.904277202644	628.457256410699	298.735675704415	652.059717831896	662.639139221015	202.597144544986	586.269189637937	516.874283882079	43.279506735865	546.282810712219	687.516241410825	96.158601830397	589.269125102890	597.360090211519	36.098624729676	624.160341537660	805.960351896704	40.739095687634	621.373623629615	868.620661984019	41.320969537624	394.065937820445	941.924416445704	51.935185321611	313.664151489330	1004.060641638817	137.868528624352	331.689885885455	1140.406823493649	122.936065832535	306.749071042098	573.639901581553	1108.397067258878	271.684252954067	559.310394683563	847.169664132027	284.358927744791	947.939846660716	1129.335213646468	787.485086875869	1163.725570067657	1221.901477443741	697.726300189437	
19	53.514285714286	752.275909801555	957.622605475771	361.938257264699	563.427091382075	1007.462228990337	547.694196118405	714.480574826926	1436.835194993945	359.081286112068	841.608937994076	1357.296562130743	496.953077145856	791.258051707372	1426.164759620226	685.146734874173	740.045699109142	1492.039732450555	511.210377500774	797.960397982677	934.976019805615	634.023822241422	798.703677955848	725.348810585070	605.633638672045	699.303916244670	629.116477111969	668.175678154671	759.775968118235	565.955602489503	586.054944569002	742.328789675518	480.906724618937	589.501274097205	827.148873564703	775.218017858923	386.383692150272	778.436650053724	647.697216380260	310.172330061077	882.979478727146	588.238375655387	369.784150918382	912.547544499163	526.238950288142	364.308737508027	900.960687503167	455.989267614998	353.877891152626	843.819030246764	321.262833624378	303.604000766082	940.826723716306	229.325254707127	355.702902678162	706.207118527440	396.067136160350	594.181772037658	624.398415526016	298.470351323615	651.752124790418	657.148090803570	201.958535036738	585.848534842025	510.037220728220	43.267653842531	546.334418456201	680.648917765678	96.063003170224	589.182667389553	590.503200646852	36.043578673166	624.174905611260	799.131908124587	40.673926006967	621.399922045579	873.580798941753	40.695963815634	396.399504311041	946.184832801473	51.308796789920	315.428161483597	1007.978145755129	137.454659748003	332.671534976412	1144.137900933966	123.065708129458	306.843814489272	572.444746283107	1107.364517257199	271.069437857882	558.522133641728	846.070823480958	283.285834950543	950.945709582785	1130.134818717211	784.671429929784	1163.337814312064	1228.025900275867	693.200185635137	
20	53.527857142857	752.980071784710	956.457231548382	360.889606947323	564.494325167467	1006.162229939282	547.130403461503	713.350780567113	1435.656891479504	357.729148121124	841.265573593418	1356.672494348065	495.162455291323	791.337166187716	1425.456140310450	683.482771192177	739.192335402765	1491.055020621913	509.714270690459	799.317991258510	933.996286226898	632.982599448581	798.728752207333	723.991879738347	604.553457150504	698.630239021192	628.277229061111	667.341528015441	758.267358698243	564.692557588623	585.084232858422	739.943225660120	479.546489721115	588.435570841207	828.298594566305	773.837230729788	385.232726433636	777.710243815381	645.529762062672	310.690860346992	882.938399315997	586.341577393836	368.929520238151	912.262604568683	524.553776639074	364.157810996268	900.834986230663	454.293192484294	354.328995675034	843.907868140890	319.229428764906	305.161662235972	941.555886817935	227.988711867340	357.018619017445	703.017020484788	395.009640886572	593.389496454019	620.424307343855	298.240063112560	651.408711485332	651.709365547144	201.345559878938	585.414783480272	503.216625993244	43.303875195151	546.400184687430	673.818977444832	95.970708492751	589.114856694107	583.669952444480	35.989532115853	624.183906459193	792.323506045595	40.556175207724	621.431341306120	875.043602701312	40.154342408813	398.981919798994	946.952190612963	50.271126372313	317.395426566473	1009.211102316759	135.876808401861	334.009740741036	1144.947419085591	120.739851004476	307.117648072462	571.746296856162	1106.045993678476	270.076400597214	558.674934806612	844.671095194736	281.595077457144	953.292613691838	1130.597616156447	781.818484219311	1162.611106988970	1232.997701598321	688.805560497074	
21	53.541428571429	754.133393718937	955.261782436243	359.785079335627	565.812279708692	1004.768771695008	546.278521190008	712.266554431613	1434.388074045288	356.178304738255	840.955011061518	1356.103153068185	493.263200672793	791.289305640464	1424.779682443749	681.692485820916	738.247894757230	1490.039623879867	508.027766696067	800.885875841861	932.950038876476	631.891738551092	798.920951762234	722.565431843428	603.402349400733	698.060783452329	627.427587146529	666.416978203831	756.871469508218	563.379286170423	584.048467035785	737.638946781837	478.153027824246	587.290131665362	830.050150815781	772.455778214240	384.037621529228	777.550642477635	643.340841413637	311.234680943582	883.380654367091	584.420481178887	368.170170706947	912.349359044400	522.535922399735	364.064786713495	900.696862300388	452.099340911047	354.911275669902	843.116474765404	317.092964313289	306.873190961540	940.696499187750	225.927267535602	358.616301492655	699.893711938095	393.947312395719	592.535819527736	616.514383277663	298.053863870375	651.032316143075	646.314530533842	200.768661789742	584.978411243750	496.411878080872	43.403045656971	546.491318947803	667.026316625561	95.888134296305	589.072952451665	576.861228343313	35.943105419440	624.192718031938	785.532125998522	40.381715939722	621.467235482563	873.485573913699	39.578761366338	401.628897033649	944.822385357657	48.804501941117	319.488404878066	1008.255247621291	133.184151673653	335.756421260377	1143.408209529028	116.136924335918	307.818148475803	571.520995214802	1104.465306047498	268.728370404766	559.748887266817	842.997336478750	279.314788024575	955.039910920451	1130.713106546361	778.962632810732	1161.660610555432	1236.823624831477	684.560446253869	
22	53.555000000000	755.714372343754	954.043847520317	358.604516200651	567.362420688484	1003.307409789724	545.117992095911	711.267649212214	1433.044942379589	354.438846345496	840.704719821232	1355.580017192700	491.265222614888	791.145886783533	1424.123644825877	679.790335568833	737.257739897899	1488.998136538054	506.166892626369	802.641682312187	931.835707400980	630.726805769899	799.275808758179	721.077497087237	602.194524449649	697.579709753508	626.578669235962	665.396265235183	755.588314776193	562.023041865297	582.952222433793	735.420483433998	476.730059949067	586.070867917445	832.259489717979	771.015111276204	382.829526308052	777.900940443953	641.156688572065	311.723635598425	884.179722095506	582.466049921957	367.567707826896	912.684883451443	520.227647421765	364.099886907329	900.546975390486	449.499030740829	355.610164794037	841.691177625300	314.837618753294	308.639450266936	938.630024888944	223.249148904521	360.439386526721	696.837677111891	392.889214893401	591.628504597490	612.657470911518	297.926669475782	650.623680978070	640.961779257751	200.242250777002	584.550761557975	489.622765543691	43.591611930918	546.620814901367	660.273351809394	95.825986721195	589.066447774593	570.077520885667	35.916918584199	624.208302968158	778.754396530837	40.149394681962	621.507558875395	869.515169329625	38.939381825608	404.166657211698	940.492682661645	46.985121854372	321.619211763259	1005.671390221122	129.546364819437	337.912727325580	1140.141173690374	109.610287315143	309.114259906770	571.754199582794	1102.657847646905	267.053191199358	561.715256779888	841.090621779670	276.483025210715	956.249891629697	1130.480990442437	776.136480610182	1160.603365892484	1239.513921281874	680.485094575227	
